<svg xmlns="http://www.w3.org/2000/svg" viewBox="0 0 100 100">
  <circle cx="50" cy="50" r="48" fill="#fff" stroke="#222" stroke-width="3"/>
  <polygon points="50,22 61,38 39,38" fill="#222"/>
  <polygon points="73,42 74,60 58,52" fill="#222"/>
  <polygon points="27,42 26,60 42,52" fill="#222"/>
  <polygon points="36,72 50,78 64,72 58,58 42,58" fill="#222"/>
  <polygon points="50,18 62,35 72,38 68,25 55,16" fill="none" stroke="#222" stroke-width="2"/>
  <polygon points="50,18 38,35 28,38 32,25 45,16" fill="none" stroke="#222" stroke-width="2"/>
  <polygon points="76,42 75,62 82,52 80,40" fill="none" stroke="#222" stroke-width="2"/>
  <polygon points="24,42 25,62 18,52 20,40" fill="none" stroke="#222" stroke-width="2"/>
  <polygon points="64,74 74,64 78,72 68,82" fill="none" stroke="#222" stroke-width="2"/>
  <polygon points="36,74 26,64 22,72 32,82" fill="none" stroke="#222" stroke-width="2"/>
</svg>
